<?xml version="1.0" standalone="no"?>
<!DOCTYPE svg PUBLIC "-//W3C//DTD SVG 20010904//EN"
 "http://www.w3.org/TR/2001/REC-SVG-20010904/DTD/svg10.dtd">
<svg version="1.0" xmlns="http://www.w3.org/2000/svg"
 width="70.000000pt" height="65.000000pt" viewBox="0 0 70.000000 65.000000"
 preserveAspectRatio="xMidYMid meet">
<metadata>
Created by potrace 1.16, written by Peter Selinger 2001-2019
</metadata>
<g transform="translate(0.000000,65.000000) scale(0.017500,-0.016250)"
fill="#000000" stroke="none">
<path d="M1844 3920 c-225 -20 -457 -83 -659 -179 -215 -103 -347 -195 -519
-361 -286 -277 -469 -609 -551 -1000 -33 -154 -45 -449 -26 -607 61 -493 300
-935 676 -1251 462 -388 1072 -537 1664 -406 405 90 782 320 1049 639 208 248
351 542 420 865 24 116 26 142 26 375 1 236 -1 257 -27 380 -68 317 -204 604
-397 840 -77 93 -247 257 -340 326 -202 151 -460 273 -705 333 -169 41 -437
62 -611 46z m6 -194 c0 -8 2 -21 6 -29 4 -11 -14 -17 -83 -28 l-88 -14 3 -45
c2 -25 5 -46 7 -48 1 -2 39 3 84 11 44 8 81 11 81 8 0 -3 3 -15 6 -27 5 -19
-1 -22 -79 -33 l-84 -13 9 -51 c6 -29 10 -53 11 -54 1 0 40 6 86 14 88 15 100
12 101 -28 0 -12 -24 -19 -116 -33 -64 -10 -118 -16 -120 -13 -4 4 -62 351
-59 355 2 2 189 36 228 41 4 1 7 -5 7 -13z m323 8 c76 -7 77 -7 77 -35 l0 -28
-88 6 c-87 6 -89 5 -95 -18 -15 -56 -10 -66 39 -73 26 -3 64 -6 85 -6 39 0 48
-11 30 -38 -6 -10 -29 -13 -84 -10 l-76 3 -5 -29 c-14 -67 -10 -73 47 -80 28
-3 69 -6 90 -6 35 0 37 -2 37 -31 l0 -30 -87 6 c-49 3 -103 8 -122 11 l-34 5
7 97 c4 53 9 134 13 180 l6 82 42 0 c23 0 76 -3 118 -6z m-693 -119 c0 -6 -34
-24 -75 -40 -41 -17 -75 -33 -75 -36 0 -4 7 -23 16 -44 17 -41 16 -41 101 -6
l53 21 11 -22 c13 -25 9 -28 -72 -60 l-56 -22 28 -69 c16 -38 29 -73 29 -77 0
-4 -11 -12 -25 -18 -22 -10 -27 -9 -32 6 -4 9 -35 86 -69 170 l-63 153 42 19
c144 63 161 68 175 52 6 -9 12 -21 12 -27z m1180 -9 c0 -6 -14 -40 -30 -75
-17 -35 -29 -65 -28 -66 2 -1 47 17 100 42 92 42 98 43 130 30 l33 -14 -79
-37 c-43 -20 -82 -36 -87 -36 -13 0 -11 -36 6 -152 9 -55 13 -103 10 -107 -4
-3 -18 1 -33 9 -24 14 -28 24 -39 109 -7 52 -15 96 -17 99 -3 2 -18 -1 -34 -7
-21 -9 -35 -27 -51 -67 -20 -47 -26 -54 -45 -48 -11 3 -24 9 -27 13 -4 3 27
81 69 173 73 161 76 166 99 155 13 -5 23 -15 23 -21z m-1581 -198 c-44 -31
-67 -53 -63 -61 4 -7 16 -24 26 -40 l20 -27 59 41 c49 35 61 40 74 29 25 -21
17 -33 -44 -74 l-59 -40 45 -64 46 -64 -21 -21 c-12 -11 -23 -19 -26 -16 -11
12 -199 285 -202 294 -2 5 38 38 88 73 l93 63 16 -23 c17 -21 16 -23 -52 -70z
m1961 -5 c0 -2 -38 -51 -85 -109 -93 -114 -103 -144 -62 -181 57 -51 87 -37
187 91 41 52 78 95 81 95 4 1 16 -7 27 -16 21 -18 20 -19 -71 -128 -102 -121
-135 -142 -199 -125 -76 21 -129 121 -98 181 7 13 49 70 93 126 79 99 81 101
104 86 13 -8 23 -17 23 -20z m-890 -193 c351 -43 670 -239 866 -531 137 -206
203 -413 207 -653 2 -102 0 -114 -20 -140 -13 -16 -23 -35 -23 -42 0 -22 -15
-16 -30 11 -22 40 -43 39 -106 -5 -67 -47 -60 -54 9 -10 52 33 67 36 85 18 15
-15 16 -48 2 -48 -11 0 -50 -59 -50 -75 0 -5 9 5 20 23 11 18 33 41 49 50 16
9 35 30 43 47 7 16 25 36 40 45 25 13 29 13 43 -1 14 -14 11 -20 -29 -62 -29
-30 -50 -63 -60 -95 -23 -78 -53 -129 -111 -187 -30 -30 -55 -58 -55 -62 0 -4
-32 -8 -70 -8 -39 0 -70 1 -70 2 0 20 28 53 44 53 18 0 16 3 -10 19 -47 28
-49 39 -19 71 25 26 27 33 21 77 -4 26 -7 62 -6 78 0 18 -3 25 -8 18 -5 -8
-13 -2 -24 18 -19 32 -6 39 24 12 14 -13 18 -13 18 -2 1 19 135 83 160 76 27
-7 25 2 -2 12 -13 5 -34 4 -47 -1 -18 -7 -29 -4 -45 11 -38 34 -85 52 -129 49
-37 -3 -42 -6 -45 -30 -3 -21 -9 -28 -25 -28 -22 0 -60 -21 -106 -58 l-24 -19
42 2 c38 2 81 27 81 47 0 14 -15 9 -56 -17 l-39 -26 28 26 c38 34 73 42 97 20
48 -44 114 -223 85 -234 -5 -1 -28 -20 -50 -40 -22 -20 -56 -49 -75 -64 -21
-17 -27 -25 -15 -21 15 4 16 3 6 -4 -7 -5 -23 -7 -35 -4 -33 8 -206 132 -206
147 0 8 6 12 14 9 17 -6 77 33 151 100 l50 45 -50 -16 c-27 -9 -58 -23 -68
-32 -11 -9 -24 -16 -30 -17 -34 -3 -38 -5 -32 -14 4 -6 11 -8 16 -5 17 11 9
-2 -13 -21 -15 -12 -19 -14 -13 -4 6 9 0 4 -12 -10 -13 -14 -23 -32 -23 -40 0
-16 48 -55 157 -129 70 -47 72 -47 149 15 40 32 42 33 58 15 18 -20 14 -62 -8
-80 -6 -5 -43 -17 -81 -26 -39 -9 -100 -30 -138 -47 -63 -29 -68 -30 -86 -14
-18 16 -18 18 10 46 34 33 35 40 11 70 -13 16 -33 24 -68 28 -47 4 -50 6 -72
52 -12 27 -35 56 -50 65 l-27 18 26 -29 c28 -30 59 -85 59 -104 0 -18 -20 -11
-21 8 -1 16 -2 16 -6 -1 -3 -13 -59 -47 -77 -47 0 0 0 33 1 72 l1 73 -8 -73
c-4 -40 -10 -75 -13 -78 -2 -2 -26 -20 -53 -39 l-48 -34 -29 32 -28 32 22 -32
c21 -30 20 -71 -1 -58 -5 3 -10 1 -10 -6 0 -15 -29 -49 -42 -49 -4 0 -9 24
-10 53 -1 43 -2 45 -5 15 -2 -21 -8 -38 -12 -38 -34 0 -41 94 -12 175 15 42
22 50 42 48 22 -2 21 0 -6 12 -16 8 -47 14 -68 15 -31 0 -40 -4 -44 -20 -3
-11 -16 -22 -29 -25 -13 -3 -35 -7 -47 -10 -34 -7 -77 -43 -77 -66 0 -10 -5
-18 -12 -17 -7 2 -12 -1 -13 -7 -1 -22 -33 -54 -58 -59 -14 -2 -34 -10 -44
-16 -16 -9 -15 -10 6 -4 17 4 31 -1 55 -24 17 -16 45 -37 63 -46 54 -27 51
-18 -4 14 -29 17 -53 37 -53 45 0 30 119 139 135 123 2 -2 -5 -30 -16 -62 -15
-43 -18 -70 -13 -95 4 -20 7 -39 6 -43 -1 -5 5 -8 13 -8 8 0 12 6 10 13 -3 6
9 37 27 67 l32 55 9 -35 c4 -19 12 -49 17 -67 8 -32 8 -32 -34 -36 l-41 -4 46
-1 c70 -3 128 22 202 88 77 68 138 106 202 126 39 11 45 11 45 -1 0 -8 -8 -15
-17 -15 -26 0 -143 -57 -143 -69 0 -6 28 3 62 21 46 23 78 32 126 35 36 1 68
5 71 8 12 12 -24 23 -57 18 -25 -5 -33 -3 -28 5 10 16 81 15 92 0 14 -20 11
-60 -6 -69 -8 -4 -59 -17 -113 -29 -54 -12 -97 -24 -95 -26 3 -2 36 3 74 11
91 19 108 19 129 -5 17 -19 16 -20 -8 -49 -19 -23 -27 -27 -38 -18 -12 10 -12
9 -1 -2 17 -21 16 -68 -2 -68 -8 0 -15 3 -14 6 2 18 -4 29 -15 34 -10 4 -13
-2 -9 -18 3 -17 -2 -27 -18 -35 -13 -7 -42 -30 -65 -51 l-43 -39 5 47 4 48
-16 -28 c-9 -15 -13 -32 -10 -37 3 -5 -1 -23 -10 -40 -15 -30 -15 -30 9 -20
21 7 23 6 19 -11 -8 -28 -38 -42 -61 -28 -14 9 -25 8 -51 -5 -31 -17 -33 -16
-88 13 -31 17 -61 28 -67 24 -6 -3 -8 -3 -4 2 4 4 3 14 -3 21 -8 10 -8 15 2
18 8 2 39 12 69 22 30 9 72 25 92 35 21 11 40 19 43 19 10 0 5 -35 -9 -62 -8
-16 -13 -28 -10 -28 13 0 65 32 60 37 -3 3 -12 0 -20 -6 -13 -11 -14 -9 -7 16
11 41 3 66 -17 57 -70 -30 -217 -74 -263 -80 l-56 -6 -16 41 c-20 49 -20 51
-5 51 7 0 23 -12 36 -28 l24 -27 -22 32 c-21 33 -43 42 -55 23 -4 -6 4 -34 18
-63 18 -40 29 -53 47 -54 13 -1 27 -8 31 -15 7 -10 9 -9 9 5 0 10 7 17 18 16
10 0 12 -3 5 -6 -7 -2 -13 -11 -13 -19 0 -18 -18 -18 -37 1 -23 23 -25 13 -8
-35 16 -45 12 -65 -11 -56 -9 3 -14 -2 -14 -14 0 -11 -4 -20 -10 -20 -5 0 -10
-6 -10 -14 0 -8 -6 -17 -12 -19 -8 -3 -6 -6 5 -6 9 -1 17 -5 17 -11 0 -5 6
-10 14 -10 8 0 17 -6 19 -12 3 -8 6 -6 6 5 1 9 6 17 11 17 6 0 10 6 10 14 0 8
7 16 15 20 8 3 15 1 15 -4 0 -6 -4 -10 -10 -10 -5 0 -10 -7 -10 -15 0 -8 -5
-15 -10 -15 -6 0 -8 -11 -4 -25 4 -15 2 -25 -5 -25 -6 0 -11 -7 -11 -15 0 -8
-5 -15 -11 -15 -7 0 -9 -10 -5 -25 4 -14 2 -25 -4 -25 -5 0 -10 -7 -10 -15 0
-8 -6 -15 -12 -16 -7 0 -4 -4 7 -8 12 -5 23 -4 28 3 6 7 7 6 4 -4 -3 -12 -24
-15 -108 -15 -90 1 -111 4 -161 27 -56 26 -81 59 -60 80 6 6 -14 32 -56 71
-160 154 -273 335 -280 450 -3 47 0 67 13 82 9 11 14 15 11 8 -4 -6 0 -14 6
-16 8 -3 6 -6 -4 -6 -20 -1 -22 -9 -9 -29 9 -14 61 -7 61 9 0 5 -11 4 -25 -1
-16 -6 -25 -6 -25 0 0 6 5 10 10 10 6 0 10 7 10 15 0 8 6 15 13 16 6 0 3 4 -7
8 -19 7 -19 8 1 13 15 4 23 0 26 -13 3 -12 0 -19 -9 -19 -8 0 -14 -4 -14 -10
0 -6 9 -6 25 0 16 6 25 6 25 0 0 -6 -4 -10 -10 -10 -5 0 -10 -6 -10 -14 0 -8
-6 -17 -12 -19 -8 -3 -6 -6 5 -6 9 -1 17 -5 17 -11 0 -5 7 -10 15 -10 8 0 15
-9 15 -20 0 -11 4 -20 9 -20 4 0 6 11 3 25 -2 15 0 25 7 25 6 0 11 6 11 14 0
8 6 17 13 19 7 3 5 6 -5 6 -10 1 -18 6 -18 11 0 6 -7 10 -15 10 -8 0 -15 5
-15 10 0 6 -7 10 -15 10 -8 0 -15 7 -15 15 0 8 8 15 18 15 14 0 15 -2 2 -10
-13 -8 -12 -10 3 -10 9 0 17 -4 17 -10 0 -5 7 -10 15 -10 8 0 15 -6 16 -12 0
-7 4 -4 8 7 7 16 9 13 15 -19 5 -26 11 -36 21 -33 7 3 15 -3 18 -14 3 -10 1
-19 -4 -19 -5 0 -9 5 -9 10 0 6 -6 10 -14 10 -8 0 -17 6 -19 13 -4 7 -6 6 -6
-5 -1 -9 -6 -18 -12 -20 -6 -2 -8 -14 -4 -31 5 -19 12 -26 22 -23 8 3 21 6 29
6 8 0 14 7 14 15 0 8 5 15 10 15 6 0 8 11 4 25 -4 15 -2 25 5 25 6 0 11 7 11
15 0 8 5 15 10 15 6 0 10 7 10 15 0 8 7 15 15 15 8 0 15 -4 15 -10 0 -5 7 -10
15 -10 8 0 15 -4 15 -9 0 -5 8 -12 18 -14 13 -4 11 -5 -5 -6 -13 0 -23 4 -23
9 0 6 -6 10 -14 10 -8 0 -17 6 -19 13 -3 7 -6 5 -6 -5 -1 -10 -5 -18 -11 -18
-5 0 -10 -6 -10 -14 0 -8 -5 -16 -11 -18 -6 -2 2 -10 18 -18 42 -22 71 -52 56
-57 -7 -3 -13 -11 -13 -18 0 -7 -5 -15 -11 -17 -6 -2 -8 -14 -4 -31 5 -18 12
-26 21 -23 9 3 14 -2 14 -13 0 -10 -7 -21 -15 -25 -8 -3 -15 -1 -15 3 0 5 6
12 13 14 7 4 6 6 -5 6 -9 1 -18 6 -20 12 -2 6 -14 8 -31 4 -18 -5 -26 -12 -23
-21 3 -9 -2 -14 -14 -14 -11 0 -20 5 -20 10 0 6 -6 10 -14 10 -8 0 -17 6 -19
13 -3 7 -6 5 -6 -5 -1 -10 -5 -18 -11 -18 -5 0 -10 -6 -10 -14 0 -8 -6 -16
-12 -18 -10 -4 -10 -10 0 -33 7 -15 16 -25 19 -21 4 4 12 -6 19 -21 8 -19 13
-22 13 -10 1 18 31 25 31 7 0 -5 6 -10 14 -10 8 0 17 -6 19 -12 3 -8 6 -6 6 5
1 9 6 17 11 17 6 0 10 6 10 14 0 8 6 17 13 19 7 3 5 6 -5 6 -10 1 -18 6 -18
11 0 6 -6 10 -14 10 -8 0 -17 6 -19 13 -3 7 -6 5 -6 -5 -1 -10 -5 -18 -11 -18
-5 0 -10 -7 -10 -15 0 -8 -7 -15 -15 -15 -8 0 -15 5 -15 10 0 6 -6 10 -14 10
-8 0 -16 7 -20 15 -3 8 -1 15 4 15 6 0 10 -4 10 -10 0 -5 6 -10 14 -10 8 0 17
-6 19 -12 3 -8 6 -6 6 5 1 9 6 17 11 17 6 0 10 7 10 15 0 8 7 15 15 15 8 0 15
-4 15 -10 0 -5 6 -10 14 -10 8 0 16 -5 18 -11 5 -16 56 0 61 19 3 12 5 11 6
-5 0 -12 -5 -24 -11 -26 -8 -3 -6 -6 5 -6 9 -1 17 -5 17 -10 0 -5 8 -12 18
-14 13 -4 11 -5 -5 -6 -13 0 -23 4 -23 9 0 6 -6 10 -14 10 -8 0 -17 6 -19 13
-3 7 -6 5 -6 -5 -1 -10 -5 -18 -11 -18 -5 0 -10 -7 -10 -15 0 -8 -5 -15 -11
-15 -7 0 -9 -10 -5 -25 4 -14 2 -25 -3 -25 -5 0 -11 -8 -13 -18 -5 -18 13 -42
32 -42 6 0 8 -4 5 -10 -3 -5 -1 -10 4 -10 6 0 11 7 11 15 0 8 5 15 10 15 6 0
10 6 10 14 0 8 6 17 13 19 7 3 5 6 -5 6 -10 1 -18 6 -18 11 0 6 -6 10 -14 10
-8 0 -16 7 -20 15 -3 8 -1 15 4 15 6 0 10 -4 10 -10 0 -5 6 -10 14 -10 8 0 17
-6 19 -12 3 -8 6 -6 6 5 1 9 5 17 10 17 5 0 12 8 14 18 4 13 5 12 6 -5 0 -12
-4 -23 -10 -25 -15 -5 0 -58 16 -58 7 0 15 -5 17 -11 4 -12 58 -2 58 12 0 5
-11 4 -25 -1 -16 -6 -25 -6 -25 0 0 6 5 10 10 10 6 0 10 7 10 15 0 8 4 15 10
15 5 0 7 -7 4 -15 -5 -11 -2 -13 10 -9 11 4 16 0 16 -14 0 -11 -6 -23 -12 -25
-8 -3 -6 -6 5 -6 10 -1 17 -8 16 -18 0 -11 -3 -13 -6 -5 -2 6 -11 12 -18 12
-7 0 -16 6 -18 13 -3 7 -6 5 -6 -5 -1 -10 -5 -18 -11 -18 -5 0 -10 -6 -10 -14
0 -8 -6 -17 -12 -19 -8 -3 -6 -6 5 -6 9 -1 17 -5 17 -11 0 -5 6 -10 14 -10 8
0 17 -6 19 -12 3 -8 6 -6 6 5 1 9 6 17 11 17 6 0 10 6 10 14 0 8 7 16 15 20 8
3 15 1 15 -4 0 -6 -4 -10 -10 -10 -5 0 -10 -7 -10 -15 0 -8 -4 -15 -10 -15 -5
0 -10 -6 -10 -14 0 -8 -6 -17 -12 -19 -8 -3 -6 -6 5 -6 9 -1 17 -5 17 -11 0
-5 6 -10 14 -10 8 0 16 -4 18 -9 2 -5 16 -7 31 -4 17 3 26 10 23 18 -2 7 4 15
15 18 10 3 19 1 19 -4 0 -5 -4 -9 -10 -9 -5 0 -10 -6 -10 -14 0 -8 -6 -17 -12
-19 -8 -3 -6 -6 5 -6 9 -1 17 -5 17 -11 0 -5 6 -10 14 -10 8 0 17 -6 19 -12 3
-8 6 -6 6 5 1 9 6 17 11 17 6 0 10 4 10 10 0 5 -7 7 -15 4 -11 -5 -15 0 -14
17 0 18 2 20 7 8 5 -12 13 -14 27 -8 17 6 17 8 3 8 -10 1 -18 6 -18 11 0 6 -6
10 -14 10 -8 0 -16 5 -18 11 -2 6 -14 8 -31 4 -17 -5 -26 -13 -23 -20 2 -7 -4
-15 -15 -18 -10 -3 -19 -1 -19 4 0 5 5 9 10 9 6 0 10 6 10 14 0 8 6 17 13 19
7 4 6 6 -5 6 -9 1 -19 7 -21 14 -3 7 -6 5 -6 -5 -1 -10 -7 -18 -13 -19 -7 0
-4 -4 6 -8 19 -7 19 -8 -1 -13 -15 -4 -23 0 -26 13 -3 12 0 19 10 19 9 0 13 6
9 15 -3 9 0 15 9 15 9 0 12 6 9 15 -4 10 0 15 15 15 12 0 21 -4 21 -10 0 -5 8
-10 18 -11 15 0 15 -1 1 -7 -12 -5 -14 -13 -8 -27 l8 -20 1 20 c1 11 4 14 7 8
2 -7 11 -13 19 -13 8 0 14 -4 14 -10 0 -5 6 -10 14 -10 8 0 17 -6 19 -12 3 -8
6 -6 6 5 1 9 6 17 11 17 6 0 10 6 10 14 0 8 6 17 13 19 7 3 5 6 -5 6 -10 1
-18 6 -18 11 0 6 -6 10 -14 10 -8 0 -17 6 -19 13 -3 7 -6 5 -6 -5 -1 -10 -5
-18 -10 -18 -5 0 -12 -8 -14 -17 -4 -14 -5 -13 -6 4 0 12 4 23 10 25 12 4 2
58 -12 58 -5 0 -6 -7 -3 -15 4 -10 0 -15 -15 -15 -12 0 -21 6 -21 13 0 8 -4 7
-10 -3 -8 -13 -10 -13 -10 2 0 9 6 19 13 21 7 3 5 6 -5 6 -10 1 -18 6 -18 11
0 6 -7 10 -15 10 -8 0 -15 5 -15 10 0 6 -7 10 -15 10 -8 0 -15 7 -15 15 0 8 5
15 10 15 6 0 10 7 10 15 0 8 5 15 10 15 6 0 10 7 10 15 0 8 7 15 15 15 8 0 15
-4 15 -10 0 -5 7 -10 15 -10 8 0 15 -5 15 -11 0 -7 9 -9 24 -5 16 4 26 1 30
-9 3 -8 1 -15 -3 -15 -5 0 -12 6 -14 13 -3 7 -6 5 -6 -5 -1 -10 -5 -18 -11
-18 -5 0 -10 -6 -10 -14 0 -8 -5 -16 -11 -18 -12 -4 -2 -58 12 -58 5 0 4 11
-1 25 -6 16 -6 25 0 25 6 0 10 -4 10 -10 0 -5 6 -10 14 -10 8 0 17 -6 19 -12
4 -8 6 -7 6 4 1 9 6 18 12 20 6 2 11 15 11 28 0 30 -72 228 -96 265 -18 27
-40 29 -42 4 -1 -9 1 -10 3 -1 9 24 25 11 48 -40 13 -29 26 -63 29 -75 7 -21
6 -21 -46 -9 -71 17 -109 38 -147 81 -34 39 -41 91 -20 139 14 31 4 69 -12 46
-8 -12 -9 -11 -5 5 10 34 -66 67 -154 69 -32 1 -35 3 -36 33 0 17 -5 37 -11
45 -20 25 -33 81 -33 139 0 52 -2 57 -19 52 -16 -4 -22 3 -31 34 -15 50 0 130
39 207 15 30 23 52 18 49 -5 -3 -6 16 -2 43 3 27 8 65 11 84 3 19 9 36 14 38
5 2 6 10 3 18 -4 10 3 14 23 15 26 1 27 2 7 7 l-22 7 20 33 c12 17 26 32 33
32 6 0 17 10 25 22 14 22 14 22 22 3 7 -19 8 -19 8 2 1 17 7 23 24 23 102 3
125 -8 158 -72 20 -39 21 -51 15 -174 -8 -146 -1 -179 49 -224 25 -22 24 -20
-6 19 -37 47 -37 47 -28 276 6 139 -27 190 -133 204 l-53 7 54 17 c30 9 68 17
85 17 l31 1 -25 14 c-14 8 -34 15 -45 15 -11 0 -26 4 -33 9 -18 11 54 53 127
75 61 18 188 21 239 6 30 -8 32 -8 20 7 -7 9 -26 24 -43 35 -25 15 -27 18 -9
18 46 0 121 -31 159 -66 l40 -37 -41 -17 c-23 -10 -44 -23 -48 -28 -3 -5 11
-1 31 9 46 23 65 24 105 3 l32 -17 -35 -18 c-20 -10 -42 -26 -50 -35 -8 -11 2
-7 26 9 42 29 100 36 136 17 24 -13 49 -61 49 -95 0 -36 -17 -31 -37 12 -35
72 -80 69 -159 -10 l-52 -52 -13 39 c-19 55 -58 81 -117 79 -26 -1 -69 -2 -96
-3 -44 -1 -114 -25 -103 -36 2 -2 17 2 33 11 29 15 64 20 64 9 0 -3 -11 -15
-25 -25 -13 -11 -34 -34 -47 -52 -18 -27 -14 -25 29 15 90 83 200 91 239 17
18 -36 18 -69 -1 -69 -8 0 -15 9 -15 20 0 30 -36 60 -72 60 -27 0 -43 -11 -90
-60 -76 -81 -128 -184 -128 -257 0 -49 4 -59 34 -89 19 -19 42 -34 52 -33 17
0 17 1 -1 9 -38 15 -66 56 -71 102 l-4 43 11 -35 c20 -68 75 -94 146 -69 26 9
36 7 68 -15 53 -36 138 -66 209 -73 56 -5 86 -16 86 -32 0 -3 -33 -6 -73 -7
-52 0 -99 -9 -170 -32 -54 -18 -118 -32 -145 -32 -91 1 -187 62 -228 146 -25
52 -26 59 -20 162 l7 108 -27 27 c-31 31 -88 37 -120 11 -18 -14 -18 -15 5 -4
25 13 91 5 91 -10 0 -6 -5 -10 -10 -10 -22 0 -89 -53 -117 -93 -17 -23 -38
-64 -47 -91 -28 -82 -22 -236 10 -236 14 0 17 -11 29 -85 12 -74 47 -105 145
-126 34 -7 62 -22 86 -45 35 -32 36 -36 32 -90 -4 -46 -3 -54 7 -40 7 9 17 16
24 16 6 0 11 5 11 10 0 6 -4 10 -9 10 -5 0 -11 15 -13 33 -3 17 -8 40 -12 49
-9 19 27 32 122 44 50 6 53 8 48 30 -5 17 -1 26 13 34 29 15 126 12 168 -5 44
-18 52 -19 29 -2 -17 13 -17 15 1 45 16 25 22 29 33 19 7 -6 -1 9 -19 35 -17
26 -41 54 -53 62 l-21 15 28 11 c16 6 34 9 41 6 7 -3 15 0 17 7 3 7 10 1 16
-13 10 -23 11 -23 7 -2 -2 12 -1 22 4 22 11 0 19 -36 21 -90 2 -36 3 -39 6
-13 6 43 72 104 105 96 l23 -6 -22 25 c-26 28 -30 48 -9 48 8 0 28 12 45 26
28 23 35 25 63 15 44 -15 132 -14 173 3 37 16 65 60 65 104 0 38 -43 121 -82
159 -18 18 -59 47 -91 66 -32 20 -54 37 -50 40 4 2 61 10 126 17 64 7 115 15
112 18 -2 3 -46 15 -97 27 l-93 22 74 13 c62 12 71 16 57 26 -23 16 -17 18 94
39 52 10 102 21 110 26 18 10 -160 12 -249 3 -50 -6 -59 -9 -50 -20 12 -15 4
-17 -24 -6 -14 6 7 25 98 91 63 47 115 86 115 87 0 1 -46 -13 -102 -32 -56
-18 -103 -32 -105 -30 -2 2 42 40 97 86 55 45 100 84 100 86 0 2 -59 -25 -131
-62 -73 -36 -144 -70 -158 -75 l-26 -10 21 23 c11 13 56 63 99 112 44 50 73
86 65 81 -8 -5 -51 -34 -95 -65 -44 -31 -86 -60 -93 -64 -7 -4 19 56 58 133
38 78 69 141 67 141 -2 0 -55 -58 -117 -130 -63 -71 -115 -130 -116 -130 -2 0
13 35 32 78 l35 77 -46 -45 -46 -45 27 59 c18 40 23 60 15 65 -7 5 0 31 24 80
19 40 35 75 35 79 0 3 -38 -45 -84 -108 -46 -63 -80 -118 -75 -121 5 -3 -5
-18 -22 -35 -26 -24 -30 -26 -26 -9 8 29 20 181 14 175 -3 -3 -17 -25 -32 -50
l-26 -45 6 35 c20 131 25 173 23 176 -2 1 -28 -52 -58 -119 l-55 -122 -5 160
c-3 88 -8 153 -12 145 -4 -8 -28 -91 -52 -183 -25 -93 -46 -170 -48 -172 -2
-2 -21 65 -43 148 l-40 152 -6 -55 c-4 -30 -8 -107 -9 -170 l-2 -115 -16 74
c-13 65 -16 71 -26 52 -10 -18 -16 1 -35 124 -13 80 -25 145 -27 145 -2 0 -4
-79 -4 -176 0 -111 4 -173 10 -169 11 7 23 -34 18 -66 -2 -18 -25 20 -86 139
-46 90 -85 162 -87 160 -2 -2 12 -73 31 -158 19 -85 34 -157 34 -160 0 -2 -48
43 -106 100 l-105 105 36 -80 c21 -44 50 -108 66 -143 16 -35 23 -60 16 -56
-6 4 -55 46 -107 93 -138 123 -154 137 -148 126 3 -5 43 -70 87 -143 l82 -133
-76 51 c-41 28 -75 48 -75 45 0 -3 8 -17 17 -32 14 -22 4 -18 -67 27 -47 29
-98 62 -115 73 -16 11 26 -34 95 -100 69 -66 128 -116 131 -112 3 5 18 -4 33
-20 l28 -30 -93 26 c-52 13 -132 35 -179 48 -46 13 -86 22 -88 21 -2 -2 53
-39 122 -82 68 -44 123 -80 121 -82 -2 -2 -101 2 -220 8 -119 7 -218 10 -220
8 -2 -2 76 -30 173 -63 96 -32 172 -60 166 -61 -5 -1 -81 -10 -169 -20 -178
-19 -179 -17 28 -64 75 -17 137 -35 137 -38 -1 -25 -90 -45 -238 -53 -9 0 37
-13 103 -29 139 -32 145 -25 -75 -91 l-145 -44 158 -5 157 -5 -134 -70 c-74
-38 -131 -71 -126 -73 4 -2 68 8 141 22 73 15 138 26 144 26 5 0 -52 -41 -128
-92 -75 -50 -136 -93 -134 -94 2 -2 37 10 78 25 40 16 106 41 144 55 l70 27
-45 -41 c-38 -35 -41 -40 -20 -35 19 4 3 -15 -60 -75 l-85 -81 122 82 c68 46
118 86 113 89 -5 3 5 14 22 25 l32 19 -35 -50 c-43 -58 -163 -233 -174 -252
-4 -8 33 15 81 50 49 35 104 74 123 87 l34 24 -15 -24 c-29 -47 -98 -179 -94
-179 2 0 39 40 82 90 43 49 79 88 81 87 2 -2 -5 -26 -14 -53 -10 -30 -30 -61
-52 -80 -35 -31 -36 -34 -36 -100 1 -94 25 -158 105 -278 73 -108 189 -241
219 -251 13 -4 17 -12 14 -25 -5 -18 -7 -18 -69 5 -583 219 -907 851 -748
1455 69 262 235 506 455 670 245 182 565 267 869 230z m-1260 -38 c135 -70
163 -231 54 -303 -38 -25 -113 -25 -163 0 -81 42 -139 137 -128 208 18 110
126 154 237 95z m2458 -63 c7 -12 12 -22 10 -23 -2 -2 -55 -43 -118 -91 -63
-49 -117 -90 -119 -92 -2 -1 19 -33 47 -70 l52 -66 -23 -16 c-12 -9 -23 -16
-24 -16 -6 -1 -134 177 -131 181 23 23 275 213 283 213 6 1 16 -8 23 -20z
m-2799 -297 l34 -88 124 14 c69 8 126 12 129 9 3 -2 -1 -16 -7 -30 -13 -29
-26 -33 -141 -42 -43 -4 -78 -8 -78 -9 0 -2 5 -16 10 -33 8 -21 25 -36 65 -56
59 -29 62 -33 42 -61 -12 -16 -24 -12 -172 61 -87 43 -160 83 -162 89 -2 5 3
18 10 28 13 17 17 16 85 -18 l72 -36 -20 50 c-11 27 -29 73 -41 102 -17 43
-18 56 -8 80 6 15 14 28 18 28 3 0 21 -40 40 -88z m3015 -29 c55 -109 57 -117
40 -130 -27 -19 -32 -17 -55 30 -12 23 -23 43 -24 45 -2 2 -63 -27 -136 -65
-74 -37 -137 -69 -140 -71 -4 -2 -29 41 -29 51 0 2 63 34 139 72 l139 69 -23
47 -24 46 22 11 c12 6 24 11 27 11 3 0 31 -52 64 -116z m-1224 -423 c83 -14
196 -67 254 -120 49 -45 96 -128 96 -170 0 -30 -30 -67 -67 -81 -32 -12 -113
-12 -149 1 -27 9 -29 14 -26 44 9 75 -81 184 -200 245 -45 22 -65 38 -61 47 6
17 44 18 63 2 12 -11 12 -10 1 5 -7 9 -20 17 -27 17 -8 0 -14 5 -14 10 0 13
48 13 130 0z m-960 -57 c11 -10 20 -23 20 -30 0 -7 7 -13 15 -13 8 0 15 -6 15
-14 0 -8 -7 -16 -15 -20 -8 -3 -15 -1 -15 3 0 5 6 12 13 14 7 4 6 6 -5 6 -9 1
-18 6 -20 11 -2 6 -9 1 -16 -10 -10 -16 -10 -20 2 -20 17 0 29 -27 16 -35 -6
-4 -10 1 -10 9 0 9 -4 16 -9 16 -5 0 -7 -9 -4 -20 4 -14 12 -20 27 -18 15 2
22 -3 24 -19 3 -19 -1 -21 -25 -18 -39 5 -40 6 -21 13 17 7 16 8 -2 20 -20 12
-21 11 -14 -36 6 -47 5 -49 -20 -54 -26 -5 -36 6 -13 15 7 3 5 6 -5 6 -10 1
-18 9 -18 19 0 13 2 14 9 3 7 -10 12 -11 27 -1 14 8 15 10 2 6 -10 -3 -18 2
-21 15 -3 12 0 19 10 19 9 0 13 6 9 15 -3 9 0 15 8 15 12 0 13 7 7 39 -1 2
-10 -7 -21 -20 -10 -13 -19 -19 -20 -12 0 6 6 13 13 16 6 3 2 4 -11 4 -14 -1
-21 -6 -18 -14 3 -7 -1 -13 -9 -13 -17 0 -19 -9 -5 -30 8 -13 10 -12 10 3 0 9
4 17 9 17 5 0 7 -9 4 -20 -3 -11 -9 -20 -13 -20 -5 0 -6 -9 -3 -21 4 -12 0
-25 -8 -30 -11 -7 -11 -9 3 -9 9 0 18 -5 20 -12 3 -8 12 -9 36 0 26 9 32 8 32
-2 0 -8 6 -19 14 -25 11 -10 17 -8 25 6 17 30 12 9 -9 -41 -17 -37 -26 -46
-45 -46 -14 0 -25 5 -25 11 0 5 -4 8 -8 5 -5 -3 -16 4 -25 14 -11 13 -12 20
-4 24 7 2 2 5 -11 5 -13 1 -20 5 -17 11 3 6 0 10 -7 10 -9 0 -9 3 2 10 11 7
17 5 22 -8 5 -14 7 -13 7 6 1 19 -3 21 -24 16 -19 -5 -25 -2 -25 11 0 9 9 19
20 22 23 6 24 12 9 33 -9 13 -10 13 -6 -2 4 -10 -1 -18 -14 -21 -28 -7 -25 27
4 42 12 6 14 9 5 7 -13 -4 -18 0 -18 17 0 18 2 19 10 7 8 -13 10 -13 10 2 0 9
6 19 13 21 7 3 5 6 -5 6 -10 1 -18 6 -18 12 0 5 4 8 9 5 5 -4 17 -3 27 1 16 6
16 7 -2 14 -18 7 -18 8 3 8 12 1 24 -5 26 -11 3 -8 6 -6 6 5 1 9 6 17 11 17 6
0 10 7 10 15 0 8 6 15 13 16 6 0 3 4 -8 9 -17 7 -17 9 -3 9 10 1 27 -7 38 -16z
m620 7 c-12 -8 -12 -10 5 -10 11 0 26 4 34 9 18 12 51 2 51 -15 0 -8 -4 -14
-10 -14 -5 0 -10 -7 -10 -15 0 -8 -9 -15 -20 -15 -11 0 -20 -4 -20 -9 0 -4 11
-6 25 -3 15 2 25 0 25 -7 0 -6 6 -11 14 -11 8 0 17 -6 19 -12 4 -8 6 -7 6 4 1
9 5 18 10 20 14 5 0 58 -15 58 -8 0 -14 4 -14 10 0 11 32 1 42 -14 5 -8 8 -7
8 1 0 6 9 9 20 6 11 -3 20 -10 20 -15 0 -5 4 -7 8 -4 11 7 99 -45 149 -88 45
-39 83 -107 83 -149 0 -44 -48 -88 -101 -94 -47 -5 -159 13 -159 26 0 4 -10 7
-22 8 -11 1 -24 7 -28 13 -4 7 -11 10 -16 8 -5 -1 -10 7 -12 20 -2 15 -9 22
-17 18 -7 -2 -15 4 -18 14 -3 12 2 20 14 23 21 6 26 -8 7 -16 -8 -4 -7 -6 4
-6 9 -1 19 -7 21 -13 4 -8 6 -7 6 4 1 9 7 19 14 21 7 3 5 6 -5 6 -10 1 -18 6
-18 11 0 6 -6 10 -14 10 -8 0 -17 6 -19 13 -3 7 -6 5 -6 -5 -1 -10 -6 -18 -11
-18 -6 0 -8 -11 -4 -25 4 -16 2 -25 -6 -25 -6 0 -8 5 -5 10 3 6 1 10 -5 10 -6
0 -23 11 -38 25 -15 14 -21 25 -14 25 6 0 12 -4 12 -10 0 -5 6 -10 14 -10 8 0
17 -6 19 -12 3 -8 6 -6 6 5 1 9 6 17 12 17 7 0 9 10 5 25 -5 20 -3 25 13 25
11 0 22 -6 24 -12 3 -8 6 -6 6 5 1 9 6 17 11 17 6 0 10 4 10 10 0 6 -9 6 -25
0 -16 -6 -25 -6 -25 0 0 6 5 10 11 10 5 0 8 4 4 9 -3 5 -1 12 5 16 5 3 10 0
10 -8 0 -11 7 -13 23 -9 18 5 19 7 5 10 -10 2 -18 8 -18 13 0 5 -7 9 -15 9 -8
0 -15 5 -15 10 0 13 -52 1 -62 -14 -5 -7 -8 -4 -8 7 0 9 5 17 10 17 6 0 10 7
10 15 0 9 9 15 21 15 14 0 19 5 16 14 -4 9 1 17 11 19 12 3 9 5 -7 6 -16 1
-21 -3 -18 -13 3 -8 -2 -16 -14 -19 -12 -3 -19 0 -19 10 0 10 -6 12 -20 8 -14
-4 -19 -2 -17 7 2 7 2 10 0 6 -2 -4 -12 -4 -20 -1 -14 6 -14 8 3 14 10 4 28 8
39 8 17 1 17 -1 5 -9z m-1541 -211 l28 -84 99 -5 99 -5 -75 -54 c-41 -30 -77
-55 -79 -57 -1 -1 9 -39 24 -83 15 -45 25 -85 23 -90 -2 -5 -36 15 -76 45
l-74 54 -74 -55 c-40 -30 -76 -55 -78 -55 -3 0 1 18 9 41 8 23 21 63 29 90
l15 49 -82 60 -81 60 102 0 101 0 28 89 c15 49 29 88 31 86 1 -1 15 -40 31
-86z m3304 -91 l100 -3 -77 -54 c-42 -30 -76 -59 -76 -66 0 -6 11 -45 25 -85
14 -40 25 -78 25 -82 0 -5 -35 15 -78 45 l-77 55 -74 -54 c-41 -29 -76 -52
-77 -51 -2 2 8 39 21 82 14 44 25 85 25 91 0 6 -34 35 -76 65 l-77 54 100 3
99 3 29 91 30 90 29 -90 30 -91 99 -3z m-3144 -456 c39 -21 71 -73 71 -115 0
-36 -25 -83 -50 -97 -17 -9 -22 -7 -29 12 -7 17 -4 28 10 44 42 46 11 112 -56
120 -76 10 -175 -64 -161 -119 9 -39 33 -57 77 -57 21 0 39 -4 39 -9 0 -5 3
-16 6 -25 5 -13 -3 -16 -46 -16 -46 0 -56 4 -86 34 -30 30 -34 40 -34 85 0 46
4 56 38 92 61 65 154 87 221 51z m2847 2 c-3 -9 -6 -20 -6 -25 0 -5 -10 -9
-22 -9 -29 0 -42 -9 -57 -38 -15 -29 -6 -59 21 -68 22 -7 23 -6 100 85 19 23
35 31 58 31 62 0 99 -34 100 -93 0 -91 -73 -158 -144 -131 -12 5 -13 10 -4 30
6 13 15 21 20 18 22 -14 60 8 74 42 13 32 13 38 -1 60 -25 38 -50 30 -95 -30
-44 -59 -56 -66 -101 -66 -86 0 -110 132 -35 192 28 23 101 25 92 2z m-401
-98 c18 -8 39 -24 45 -36 13 -24 5 -74 -10 -65 -5 3 -7 0 -4 -8 6 -16 -21 -41
-35 -33 -5 4 -13 1 -17 -5 -5 -8 -3 -9 6 -4 9 6 11 4 6 -4 -5 -7 -15 -10 -23
-7 -8 3 -11 1 -8 -4 4 -6 -15 -19 -40 -30 -48 -21 -82 -27 -56 -11 27 17 -84
-1 -115 -19 -22 -12 -42 -16 -69 -11 -35 6 -37 8 -23 22 14 14 14 18 -2 40
-10 13 -22 20 -26 16 -4 -4 -2 -7 4 -7 7 0 12 -13 12 -29 0 -41 -44 -72 -91
-65 -19 2 -47 0 -64 -6 l-30 -10 35 4 c19 2 67 -1 107 -7 l72 -10 53 33 c50
31 83 38 138 29 22 -3 20 -39 -2 -39 -10 0 -56 -20 -104 -45 -47 -25 -96 -45
-109 -45 -12 0 -38 -7 -56 -16 -22 -9 -25 -13 -9 -9 14 4 45 10 70 14 25 4 76
25 115 46 l69 39 -21 -29 c-41 -58 -69 -73 -190 -102 -13 -3 -23 -9 -23 -13 0
-5 15 -4 33 2 17 5 43 12 57 15 l25 4 -28 -25 c-15 -14 -46 -31 -70 -38 -23
-7 -48 -18 -55 -25 -20 -20 -111 -15 -161 7 -55 25 -57 25 -112 -5 -44 -23
-59 -24 -59 -3 0 5 5 6 12 2 7 -4 8 -3 4 5 -4 6 -12 9 -17 6 -5 -4 -9 -1 -9 4
0 6 5 11 11 11 6 0 9 6 6 13 -2 6 -10 11 -17 9 -8 -2 -10 3 -6 14 4 10 2 21
-5 24 -6 5 -3 9 10 13 12 3 19 1 15 -4 -3 -5 -1 -9 3 -9 8 0 17 15 48 80 38
83 100 121 192 119 33 -1 74 5 96 14 40 17 52 32 15 18 -48 -18 -67 22 -25 53
l22 17 -23 -11 c-29 -14 -38 -38 -23 -61 10 -17 8 -19 -28 -19 -75 0 -62 65
22 114 125 74 375 118 462 82z m313 -142 c12 -8 25 -27 28 -43 5 -23 10 -27
30 -23 22 4 134 -36 134 -48 -1 -3 -7 -14 -15 -24 -15 -19 -16 -19 -55 3 -22
12 -50 21 -62 19 -22 -3 -80 -76 -72 -90 3 -4 27 -20 54 -35 55 -31 56 -32 37
-57 -12 -16 -23 -11 -150 65 l-137 82 26 46 c74 128 111 149 182 105z m-2609
-41 c39 -28 63 -85 56 -126 -14 -75 -108 -148 -190 -149 -83 -2 -143 64 -132
144 15 115 178 195 266 131z m2401 -158 c11 -13 4 -25 -38 -74 l-52 -59 34
-25 33 -26 48 55 c38 44 50 53 61 43 22 -18 18 -28 -32 -82 l-47 -49 34 -27
c18 -14 36 -26 39 -26 3 0 29 26 57 57 50 55 52 56 68 38 17 -18 14 -23 -50
-95 -37 -41 -70 -75 -73 -75 -5 0 -120 99 -200 172 l-43 39 67 74 c37 41 71
75 74 75 4 0 13 -7 20 -15z m-2140 -172 c0 -6 -8 -16 -17 -21 -13 -8 -27 1
-66 45 l-50 54 -31 -30 -30 -31 44 -45 c42 -43 43 -46 26 -63 -17 -16 -20 -15
-61 32 l-43 49 -54 -51 c-53 -50 -54 -51 -67 -29 -13 21 -8 27 100 129 l114
108 67 -67 c38 -37 68 -73 68 -80z m1447 11 c42 -21 63 -25 96 -21 l42 5 -60
-30 c-65 -33 -191 -81 -240 -91 -24 -5 -21 -3 13 13 45 20 52 42 33 93 -9 22
-6 27 22 41 40 19 31 20 94 -10z m543 -25 c0 -5 -14 -22 -32 -38 l-32 -29 82
-100 c45 -55 82 -105 82 -111 0 -6 -8 -15 -18 -20 -16 -8 -31 6 -102 95 -46
57 -87 104 -90 104 -4 0 -17 -11 -30 -25 -28 -30 -41 -31 -56 -7 -10 15 2 27
79 90 71 57 92 70 103 61 8 -6 14 -15 14 -20z m-1883 -65 c73 -56 83 -70 62
-91 -9 -9 -26 -1 -70 34 l-58 45 -25 -28 c-14 -16 -26 -31 -26 -34 0 -3 23
-23 50 -43 44 -33 49 -40 40 -58 -12 -22 -17 -20 -77 28 l-42 33 -37 -47 c-21
-27 -41 -52 -46 -57 -4 -6 -16 -2 -27 8 -19 17 -17 20 77 142 53 68 99 124
101 124 3 0 38 -25 78 -56z m203 -130 c84 -44 88 -48 78 -70 l-11 -24 -72 40
-72 39 -16 -35 c-9 -19 -17 -37 -17 -39 0 -3 27 -18 60 -35 63 -32 66 -35 50
-60 -8 -13 -18 -11 -66 15 -32 17 -61 31 -65 33 -4 2 -17 -15 -28 -37 l-21
-40 70 -38 c38 -21 70 -41 70 -44 0 -3 -6 -13 -12 -22 -12 -15 -21 -12 -106
34 l-93 50 34 62 c19 34 53 97 76 140 23 42 45 77 48 77 3 0 45 -21 93 -46z
m1449 36 c5 0 20 -10 35 -21 27 -21 27 -21 7 -36 -18 -12 -24 -12 -45 2 -38
25 -96 -2 -96 -45 0 -33 31 -40 99 -24 55 12 65 12 91 -1 60 -31 69 -104 20
-154 -56 -55 -137 -58 -180 -6 -13 15 -12 19 5 31 16 12 21 12 36 -2 38 -34
119 -6 119 40 0 42 -23 51 -96 37 -35 -7 -75 -10 -89 -7 -27 7 -55 52 -55 90
0 49 83 114 128 100 8 -2 17 -4 21 -4z m-1221 -131 c85 -28 92 -33 86 -52 -4
-12 -7 -23 -9 -24 -1 -2 -35 8 -75 22 -40 14 -74 25 -76 25 -1 0 -5 -11 -8
-24 -3 -13 -9 -31 -12 -39 -4 -12 11 -21 65 -38 63 -20 70 -25 65 -43 -4 -12
-7 -22 -9 -23 -1 -2 -33 8 -72 21 l-70 24 -12 -38 c-6 -20 -11 -42 -11 -47 0
-5 33 -20 74 -33 62 -19 73 -26 69 -42 -3 -10 -9 -20 -13 -23 -6 -3 -186 51
-197 60 -5 3 99 305 105 305 4 0 49 -14 100 -31z m1031 -113 c56 -72 101 -133
101 -137 0 -4 -10 -9 -22 -13 -23 -6 -27 -2 -62 46 -12 17 -16 17 -67 0 -53
-19 -54 -19 -57 -63 -3 -43 -14 -59 -39 -59 -10 0 -13 40 -13 169 l0 169 28
10 c15 5 28 9 28 8 1 0 47 -59 103 -130z m-312 44 c45 -27 74 -89 74 -155 0
-75 -23 -119 -75 -145 -51 -24 -55 -24 -106 -4 -71 28 -112 129 -89 218 23 93
117 134 196 86z m-295 -12 c49 -18 61 -96 21 -140 -10 -11 -12 -22 -5 -35 5
-10 12 -46 15 -81 l5 -63 -26 3 c-25 3 -27 7 -30 58 -2 30 -8 60 -14 67 -6 7
-32 13 -58 13 -54 0 -60 -9 -60 -87 0 -43 -10 -52 -38 -34 -11 6 -12 36 -7
142 9 197 1 182 93 174 42 -3 89 -11 104 -17z"/>
<path d="M1371 1398 c-1 -10 -5 -18 -11 -18 -5 0 -10 -6 -10 -14 0 -8 -6 -17
-12 -19 -8 -3 -6 -6 5 -6 9 -1 17 -5 17 -10 0 -5 8 -12 18 -14 13 -4 11 -5 -5
-6 -13 0 -23 4 -23 11 0 6 -2 9 -5 6 -9 -8 6 -38 16 -32 8 4 14 -17 10 -38 0
-5 4 -8 9 -8 6 0 10 7 10 15 0 8 7 15 15 15 8 0 15 -4 15 -10 0 -5 6 -10 14
-10 8 0 16 -7 20 -15 3 -8 1 -15 -4 -15 -6 0 -10 5 -10 10 0 6 -6 10 -14 10
-8 0 -17 6 -19 13 -4 7 -6 6 -6 -5 -1 -9 -7 -19 -13 -21 -7 -3 -4 -6 7 -6 17
-1 17 -3 5 -11 -13 -8 -13 -10 2 -10 9 0 18 8 20 18 3 14 5 13 10 -5 4 -16 2
-23 -8 -23 -14 0 -19 -12 -8 -23 8 -7 34 17 34 32 0 6 5 11 10 11 6 0 10 7 10
15 0 9 9 15 21 15 14 0 19 5 16 14 -3 8 2 16 14 19 10 3 19 1 19 -4 0 -5 -4
-9 -10 -9 -5 0 -10 -6 -10 -14 0 -8 -6 -17 -12 -19 -8 -4 -7 -6 4 -6 9 -1 19
-7 21 -13 3 -8 6 -6 6 5 1 9 6 17 11 17 6 0 10 8 11 18 0 15 1 15 7 1 5 -12
13 -14 27 -8 17 6 17 8 3 8 -10 1 -18 6 -18 11 0 6 -7 10 -15 10 -8 0 -15 5
-15 10 0 6 -6 10 -14 10 -8 0 -17 6 -19 13 -3 7 -6 5 -6 -5 -1 -10 -5 -18 -11
-18 -5 0 -10 -6 -10 -14 0 -8 -7 -16 -15 -20 -8 -3 -15 -1 -15 4 0 6 5 10 10
10 6 0 10 6 10 14 0 8 6 17 13 19 7 3 5 6 -5 6 -10 1 -18 6 -18 11 0 6 -6 10
-14 10 -8 0 -17 6 -19 13 -3 7 -6 5 -6 -5 -1 -10 -5 -18 -11 -18 -5 0 -10 -7
-10 -15 0 -8 -8 -15 -17 -14 -11 0 -13 3 -5 6 6 2 12 11 12 19 0 8 5 14 10 14
6 0 10 6 10 14 0 8 6 17 13 19 7 3 5 6 -5 6 -10 1 -18 6 -18 11 0 6 -6 10 -14
10 -8 0 -17 6 -19 13 -3 7 -6 5 -6 -5z"/>
<path d="M770 3143 c-24 -9 -52 -36 -61 -61 -10 -27 10 -84 44 -121 33 -35
102 -64 137 -56 35 8 70 48 70 82 0 52 -56 120 -122 147 -40 17 -44 18 -68 9z"/>
<path d="M645 1236 c-52 -22 -95 -73 -95 -111 0 -79 79 -105 160 -51 54 35 77
84 61 124 -20 48 -69 63 -126 38z"/>
<path d="M2161 514 c-23 -29 -29 -102 -12 -147 33 -86 136 -87 157 -2 10 41
-2 115 -23 144 -30 39 -93 42 -122 5z"/>
</g>
</svg>
